<mxfile host="app.diagrams.net" agent="Mozilla/5.0 (Windows NT 10.0; Win64; x64) AppleWebKit/537.36 (KHTML, like Gecko) Chrome/127.0.0.0 Safari/537.36" version="24.7.7">
  <diagram name="Страница — 1" id="p0BpEOeX-ex_zlg8SjAK">
    <mxGraphModel dx="819" dy="422" grid="1" gridSize="10" guides="1" tooltips="1" connect="1" arrows="1" fold="1" page="1" pageScale="1" pageWidth="690" pageHeight="980" math="0" shadow="0">
      <root>
        <mxCell id="0" />
        <mxCell id="1" parent="0" />
        <mxCell id="tTafXLsIIG_-vbyzDfbG-12" style="edgeStyle=orthogonalEdgeStyle;rounded=0;orthogonalLoop=1;jettySize=auto;html=1;entryX=0;entryY=0.5;entryDx=0;entryDy=0;" edge="1" parent="1" source="tTafXLsIIG_-vbyzDfbG-2" target="tTafXLsIIG_-vbyzDfbG-8">
          <mxGeometry relative="1" as="geometry" />
        </mxCell>
        <mxCell id="tTafXLsIIG_-vbyzDfbG-2" value="инициализация диалога с бота" style="rounded=1;whiteSpace=wrap;html=1;" vertex="1" parent="1">
          <mxGeometry x="290" y="260" width="110" height="60" as="geometry" />
        </mxCell>
        <mxCell id="tTafXLsIIG_-vbyzDfbG-24" style="edgeStyle=orthogonalEdgeStyle;rounded=0;orthogonalLoop=1;jettySize=auto;html=1;entryX=0;entryY=0.5;entryDx=0;entryDy=0;exitX=0.999;exitY=0.123;exitDx=0;exitDy=0;exitPerimeter=0;" edge="1" parent="1" source="tTafXLsIIG_-vbyzDfbG-3" target="tTafXLsIIG_-vbyzDfbG-20">
          <mxGeometry relative="1" as="geometry" />
        </mxCell>
        <mxCell id="tTafXLsIIG_-vbyzDfbG-27" style="edgeStyle=orthogonalEdgeStyle;rounded=0;orthogonalLoop=1;jettySize=auto;html=1;entryX=0;entryY=0.25;entryDx=0;entryDy=0;" edge="1" parent="1" source="tTafXLsIIG_-vbyzDfbG-3" target="tTafXLsIIG_-vbyzDfbG-22">
          <mxGeometry relative="1" as="geometry">
            <Array as="points">
              <mxPoint x="830" y="290" />
              <mxPoint x="830" y="345" />
            </Array>
          </mxGeometry>
        </mxCell>
        <mxCell id="tTafXLsIIG_-vbyzDfbG-28" style="edgeStyle=orthogonalEdgeStyle;rounded=0;orthogonalLoop=1;jettySize=auto;html=1;entryX=0;entryY=0.5;entryDx=0;entryDy=0;exitX=1;exitY=0.75;exitDx=0;exitDy=0;" edge="1" parent="1" source="tTafXLsIIG_-vbyzDfbG-3" target="tTafXLsIIG_-vbyzDfbG-23">
          <mxGeometry relative="1" as="geometry" />
        </mxCell>
        <mxCell id="tTafXLsIIG_-vbyzDfbG-3" value="1)Наши соц.сети&lt;div&gt;2)Наш сайт&lt;br&gt;&lt;div&gt;&lt;span style=&quot;background-color: initial;&quot;&gt;3)&lt;/span&gt;&lt;span style=&quot;background-color: initial;&quot;&gt;Расчет стоимости страхования&lt;/span&gt;&lt;br&gt;&lt;/div&gt;&lt;div&gt;4)&lt;span style=&quot;background-color: initial;&quot;&gt;Юридические услуги&lt;/span&gt;&lt;/div&gt;&lt;div&gt;&lt;span style=&quot;background-color: initial;&quot;&gt;5)&lt;/span&gt;&lt;span style=&quot;background-color: initial;&quot;&gt;Оператор&lt;/span&gt;&lt;/div&gt;&lt;div&gt;&lt;br&gt;&lt;/div&gt;&lt;/div&gt;" style="rounded=1;whiteSpace=wrap;html=1;" vertex="1" parent="1">
          <mxGeometry x="609" y="240" width="151" height="100" as="geometry" />
        </mxCell>
        <mxCell id="tTafXLsIIG_-vbyzDfbG-5" value="&lt;span style=&quot;color: rgb(0, 0, 0); font-family: Helvetica; font-size: 12px; font-style: normal; font-variant-ligatures: normal; font-variant-caps: normal; font-weight: 400; letter-spacing: normal; orphans: 2; text-align: center; text-indent: 0px; text-transform: none; widows: 2; word-spacing: 0px; -webkit-text-stroke-width: 0px; white-space: normal; background-color: rgb(251, 251, 251); text-decoration-thickness: initial; text-decoration-style: initial; text-decoration-color: initial; display: inline !important; float: none;&quot;&gt;buttons&lt;/span&gt;" style="text;whiteSpace=wrap;html=1;" vertex="1" parent="1">
          <mxGeometry x="665" y="210" width="70" height="40" as="geometry" />
        </mxCell>
        <mxCell id="tTafXLsIIG_-vbyzDfbG-6" value="&lt;span style=&quot;color: rgb(0, 0, 0); font-family: Helvetica; font-size: 12px; font-style: normal; font-variant-ligatures: normal; font-variant-caps: normal; font-weight: 400; letter-spacing: normal; orphans: 2; text-align: center; text-indent: 0px; text-transform: none; widows: 2; word-spacing: 0px; -webkit-text-stroke-width: 0px; white-space: normal; background-color: rgb(251, 251, 251); text-decoration-thickness: initial; text-decoration-style: initial; text-decoration-color: initial; display: inline !important; float: none;&quot;&gt;/start&lt;/span&gt;&lt;br style=&quot;forced-color-adjust: none; color: rgb(0, 0, 0); font-family: Helvetica; font-size: 12px; font-style: normal; font-variant-ligatures: normal; font-variant-caps: normal; font-weight: 400; letter-spacing: normal; orphans: 2; text-align: center; text-indent: 0px; text-transform: none; widows: 2; word-spacing: 0px; -webkit-text-stroke-width: 0px; white-space: normal; background-color: rgb(251, 251, 251); text-decoration-thickness: initial; text-decoration-style: initial; text-decoration-color: initial;&quot;&gt;" style="text;whiteSpace=wrap;html=1;" vertex="1" parent="1">
          <mxGeometry x="330" y="230" width="60" height="40" as="geometry" />
        </mxCell>
        <mxCell id="tTafXLsIIG_-vbyzDfbG-7" value="нужно несколько значений для вызова кнопок с полезной информацией" style="shape=callout;whiteSpace=wrap;html=1;perimeter=calloutPerimeter;" vertex="1" parent="1">
          <mxGeometry x="620" y="120" width="140" height="100" as="geometry" />
        </mxCell>
        <mxCell id="tTafXLsIIG_-vbyzDfbG-9" style="edgeStyle=orthogonalEdgeStyle;rounded=0;orthogonalLoop=1;jettySize=auto;html=1;" edge="1" parent="1" source="tTafXLsIIG_-vbyzDfbG-8" target="tTafXLsIIG_-vbyzDfbG-3">
          <mxGeometry relative="1" as="geometry" />
        </mxCell>
        <mxCell id="tTafXLsIIG_-vbyzDfbG-8" value="Добрый день.Я бот компании $name" style="rounded=1;whiteSpace=wrap;html=1;" vertex="1" parent="1">
          <mxGeometry x="430" y="260" width="120" height="60" as="geometry" />
        </mxCell>
        <mxCell id="tTafXLsIIG_-vbyzDfbG-10" value="приветственное&lt;div&gt;&amp;nbsp;сообщение с кнопками&amp;nbsp;&lt;/div&gt;&lt;div&gt;и информации по услгуам&lt;/div&gt;" style="text;html=1;align=center;verticalAlign=middle;resizable=0;points=[];autosize=1;strokeColor=none;fillColor=none;" vertex="1" parent="1">
          <mxGeometry x="400" y="200" width="170" height="60" as="geometry" />
        </mxCell>
        <mxCell id="tTafXLsIIG_-vbyzDfbG-19" style="edgeStyle=orthogonalEdgeStyle;rounded=0;orthogonalLoop=1;jettySize=auto;html=1;entryX=0;entryY=0.25;entryDx=0;entryDy=0;" edge="1" parent="1" source="tTafXLsIIG_-vbyzDfbG-13" target="tTafXLsIIG_-vbyzDfbG-2">
          <mxGeometry relative="1" as="geometry" />
        </mxCell>
        <mxCell id="tTafXLsIIG_-vbyzDfbG-13" value="тг каналы" style="rounded=1;whiteSpace=wrap;html=1;" vertex="1" parent="1">
          <mxGeometry x="100" y="190" width="120" height="60" as="geometry" />
        </mxCell>
        <mxCell id="tTafXLsIIG_-vbyzDfbG-18" style="edgeStyle=orthogonalEdgeStyle;rounded=0;orthogonalLoop=1;jettySize=auto;html=1;entryX=0;entryY=0.5;entryDx=0;entryDy=0;" edge="1" parent="1" source="tTafXLsIIG_-vbyzDfbG-14" target="tTafXLsIIG_-vbyzDfbG-2">
          <mxGeometry relative="1" as="geometry" />
        </mxCell>
        <mxCell id="tTafXLsIIG_-vbyzDfbG-14" value="ВК" style="rounded=1;whiteSpace=wrap;html=1;" vertex="1" parent="1">
          <mxGeometry x="100" y="260" width="120" height="60" as="geometry" />
        </mxCell>
        <mxCell id="tTafXLsIIG_-vbyzDfbG-17" style="edgeStyle=orthogonalEdgeStyle;rounded=0;orthogonalLoop=1;jettySize=auto;html=1;entryX=0;entryY=0.75;entryDx=0;entryDy=0;" edge="1" parent="1" source="tTafXLsIIG_-vbyzDfbG-15" target="tTafXLsIIG_-vbyzDfbG-2">
          <mxGeometry relative="1" as="geometry" />
        </mxCell>
        <mxCell id="tTafXLsIIG_-vbyzDfbG-15" value="инста" style="rounded=1;whiteSpace=wrap;html=1;" vertex="1" parent="1">
          <mxGeometry x="100" y="330" width="120" height="60" as="geometry" />
        </mxCell>
        <mxCell id="tTafXLsIIG_-vbyzDfbG-20" value="*ссылки на вк группу,инсту*" style="rounded=1;whiteSpace=wrap;html=1;" vertex="1" parent="1">
          <mxGeometry x="870" y="150" width="120" height="60" as="geometry" />
        </mxCell>
        <mxCell id="tTafXLsIIG_-vbyzDfbG-21" value="ссылка на сайт(возможно следует добавить еще что-то, чтобы не было только ссылки" style="rounded=1;whiteSpace=wrap;html=1;" vertex="1" parent="1">
          <mxGeometry x="865" y="220" width="120" height="60" as="geometry" />
        </mxCell>
        <mxCell id="tTafXLsIIG_-vbyzDfbG-22" value="$massage = предоставьте следующую информацию" style="rounded=1;whiteSpace=wrap;html=1;" vertex="1" parent="1">
          <mxGeometry x="870" y="330" width="120" height="60" as="geometry" />
        </mxCell>
        <mxCell id="tTafXLsIIG_-vbyzDfbG-49" style="edgeStyle=orthogonalEdgeStyle;rounded=0;orthogonalLoop=1;jettySize=auto;html=1;entryX=0;entryY=0.5;entryDx=0;entryDy=0;" edge="1" parent="1" source="tTafXLsIIG_-vbyzDfbG-23" target="tTafXLsIIG_-vbyzDfbG-46">
          <mxGeometry relative="1" as="geometry" />
        </mxCell>
        <mxCell id="tTafXLsIIG_-vbyzDfbG-23" value="$operatorName" style="rounded=1;whiteSpace=wrap;html=1;" vertex="1" parent="1">
          <mxGeometry x="870" y="450" width="120" height="60" as="geometry" />
        </mxCell>
        <mxCell id="tTafXLsIIG_-vbyzDfbG-26" style="edgeStyle=orthogonalEdgeStyle;rounded=0;orthogonalLoop=1;jettySize=auto;html=1;entryX=-0.006;entryY=0.69;entryDx=0;entryDy=0;entryPerimeter=0;" edge="1" parent="1" source="tTafXLsIIG_-vbyzDfbG-3" target="tTafXLsIIG_-vbyzDfbG-21">
          <mxGeometry relative="1" as="geometry">
            <Array as="points">
              <mxPoint x="799" y="273" />
              <mxPoint x="799" y="261" />
            </Array>
          </mxGeometry>
        </mxCell>
        <mxCell id="tTafXLsIIG_-vbyzDfbG-29" value="редирект чата&lt;div&gt;&amp;nbsp;на оператора&lt;/div&gt;" style="text;html=1;align=center;verticalAlign=middle;resizable=0;points=[];autosize=1;strokeColor=none;fillColor=none;" vertex="1" parent="1">
          <mxGeometry x="880" y="410" width="100" height="40" as="geometry" />
        </mxCell>
        <mxCell id="tTafXLsIIG_-vbyzDfbG-30" value="запрос инфы" style="text;html=1;align=center;verticalAlign=middle;resizable=0;points=[];autosize=1;strokeColor=none;fillColor=none;" vertex="1" parent="1">
          <mxGeometry x="875" y="300" width="100" height="30" as="geometry" />
        </mxCell>
        <mxCell id="tTafXLsIIG_-vbyzDfbG-46" value="закрытие диалога с самим ботом" style="rounded=1;whiteSpace=wrap;html=1;" vertex="1" parent="1">
          <mxGeometry x="1050" y="450" width="120" height="60" as="geometry" />
        </mxCell>
      </root>
    </mxGraphModel>
  </diagram>
</mxfile>
